<svg display="none" xmlns="http://www.w3.org/2000/svg">
    <symbol id="volume" viewBox="0 0 400 400">
        <path id="path0" d="M243.750 27.619 L 243.750 51.437 247.852 52.769 C 289.075 66.162,325.322 98.968,342.231 138.190 C 378.375 222.027,334.567 319.058,247.852 347.231 L 243.750 348.563 243.750 372.381 C 243.750 394.696,243.836 396.174,245.117 395.800 C 245.869 395.580,249.928 394.477,254.136 393.350 C 323.698 374.706,379.149 316.265,395.342 244.531 C 418.855 140.365,355.630 33.853,254.136 6.650 C 249.928 5.523,245.869 4.420,245.117 4.200 C 243.836 3.826,243.750 5.304,243.750 27.619 M144.141 77.344 L 88.676 132.813 44.338 132.813 L 0.000 132.813 0.000 200.000 L 0.000 267.188 44.334 267.188 L 88.668 267.188 144.334 322.850 L 200.000 378.512 200.000 200.193 C 200.000 102.118,199.911 21.875,199.803 21.875 C 199.694 21.875,174.646 46.836,144.141 77.344 M243.750 200.000 C 243.750 273.932,243.928 289.063,244.797 289.063 C 246.202 289.063,257.823 282.035,262.917 278.105 C 312.604 239.772,312.604 160.228,262.917 121.895 C 257.823 117.965,246.202 110.938,244.797 110.938 C 243.928 110.938,243.750 126.068,243.750 200.000"></path>
    </symbol>

    <symbol id="previous" viewBox="0 0 400 400">
        <path id="path0" d="M0.000 200.000 L 0.000 400.000 33.594 400.000 L 67.188 400.000 67.188 200.000 L 67.188 0.000 33.594 0.000 L 0.000 0.000 0.000 200.000 M257.813 99.701 C 180.254 154.486,116.797 199.620,116.797 200.000 C 116.797 200.647,398.662 400.000,399.577 400.000 C 399.810 400.000,400.000 310.000,400.000 200.000 C 400.000 90.000,399.736 0.021,399.414 0.046 C 399.092 0.071,335.371 44.916,257.813 99.701 "></path>
    </symbol>
    <symbol id="next" viewBox="0 0 400 400">
        <path id="path0" d="M0.000 200.000 C 0.000 310.000,0.190 400.000,0.423 400.000 C 1.338 400.000,283.203 200.647,283.203 200.000 C 283.203 199.353,1.338 0.000,0.423 0.000 C 0.190 0.000,0.000 90.000,0.000 200.000 M332.813 200.000 L 332.813 400.000 366.406 400.000 L 400.000 400.000 400.000 200.000 L 400.000 0.000 366.406 0.000 L 332.813 0.000 332.813 200.000 "></path>
    </symbol>
    <symbol id="play" viewBox="0 0 400 400">
        <path id="path0" d="M42.188 200.000 C 42.188 374.619,42.332 400.082,43.323 399.862 C 44.683 399.559,357.739 200.562,357.739 200.000 C 357.739 199.438,44.683 0.441,43.323 0.138 C 42.332 -0.082,42.188 25.381,42.188 200.000 "></path>
    </symbol>
    <symbol id="pause" viewBox="0 0 400 400">
        <path id="path0" d="M28.125 200.000 L 28.125 400.000 85.547 400.000 L 142.969 400.000 142.969 200.000 L 142.969 0.000 85.547 0.000 L 28.125 0.000 28.125 200.000 M257.031 200.000 L 257.031 400.000 314.453 400.000 L 371.875 400.000 371.875 200.000 L 371.875 0.000 314.453 0.000 L 257.031 0.000 257.031 200.000 "></path>
    </symbol>
    <symbol id="mute" viewBox="0 0 400 400">
        <path id="path0" d="M14.849 14.440 L 0.401 28.912 51.956 80.472 L 103.511 132.031 52.146 132.031 L 0.781 132.031 0.781 198.828 L 0.781 265.625 45.115 265.625 L 89.449 265.625 144.725 320.896 L 200.000 376.168 200.000 302.344 L 200.000 228.521 246.875 275.391 C 272.656 301.169,293.747 322.438,293.744 322.654 C 293.713 324.858,263.178 341.608,250.977 346.116 L 243.750 348.785 243.750 372.492 C 243.750 394.704,243.836 396.174,245.117 395.794 C 245.869 395.571,249.395 394.659,252.952 393.766 C 277.356 387.641,298.495 377.137,322.490 359.212 L 325.840 356.710 347.495 378.355 C 359.406 390.260,369.504 400.000,369.935 400.000 C 370.366 400.000,377.217 393.495,385.160 385.543 L 399.601 371.087 278.442 249.801 C 211.805 183.094,128.838 99.688,94.072 64.453 C 59.305 29.219,30.508 0.296,30.078 0.180 C 29.649 0.064,22.795 6.481,14.849 14.440 M243.750 25.342 L 243.750 49.011 250.467 51.547 C 331.413 82.097,372.821 168.548,345.327 249.592 L 342.947 256.606 359.553 273.225 C 368.686 282.365,376.449 289.844,376.805 289.844 C 379.325 289.844,391.221 258.709,394.415 243.750 C 417.411 136.065,355.449 31.611,252.148 3.923 L 243.750 1.672 243.750 25.342 M176.170 45.314 L 152.741 68.753 176.370 92.383 L 200.000 116.012 200.000 68.944 C 200.000 43.056,199.910 21.875,199.800 21.875 C 199.690 21.875,189.056 32.423,176.170 45.314 M243.750 134.965 L 243.750 159.774 271.293 187.309 C 286.442 202.453,299.150 214.844,299.533 214.844 C 300.866 214.844,299.416 186.142,297.666 177.881 C 291.764 150.021,275.486 127.552,251.160 113.690 C 247.750 111.746,244.688 110.156,244.355 110.156 C 244.022 110.156,243.750 121.320,243.750 134.965 "></path>
    </symbol>
    <symbol id="shuffle" viewBox="0 0 450 450">
        <path id="path0" d="M17.376 17.389 C 7.819 26.953,0.000 35.126,0.000 35.551 C 0.000 36.565,128.276 164.844,129.289 164.844 C 130.312 164.844,164.844 130.325,164.844 129.302 C 164.844 128.272,36.569 -0.000,35.539 -0.000 C 35.106 -0.000,26.933 7.825,17.376 17.389 M287.502 25.393 L 312.885 50.785 156.443 207.229 C 70.399 293.273,0.000 364.027,0.000 364.460 C -0.000 365.480,34.532 400.000,35.553 400.000 C 35.978 400.000,106.727 329.601,192.771 243.557 L 349.215 87.115 374.607 112.498 L 400.000 137.882 400.000 68.941 L 400.000 0.000 331.059 -0.000 L 262.118 -0.000 287.502 25.393 M252.533 252.545 C 242.976 262.109,235.156 270.282,235.156 270.707 C 235.156 271.131,252.645 288.970,274.020 310.348 L 312.883 349.217 287.501 374.609 L 262.118 400.000 331.059 400.000 L 400.000 400.000 400.000 331.059 L 400.000 262.118 374.609 287.501 L 349.217 312.883 310.348 274.020 C 288.970 252.645,271.125 235.156,270.694 235.156 C 270.262 235.156,262.090 242.981,252.533 252.545 "></path>
    </symbol>
    <symbol id="repeat" viewBox="0 0 400 400">
        <path id="path0" d="M300.000 29.495 L 300.000 59.375 179.688 59.375 L 59.375 59.375 59.375 119.922 L 59.375 180.469 79.688 180.469 L 100.000 180.469 100.000 140.234 L 100.000 100.000 199.991 100.000 L 299.982 100.000 300.186 130.081 L 300.391 160.163 340.430 120.118 L 380.469 80.072 340.234 39.844 L 300.000 -0.385 300.000 29.495 M300.000 259.766 L 300.000 300.000 200.000 300.000 L 100.000 300.000 100.000 269.729 L 100.000 239.459 59.766 279.688 L 19.531 319.916 59.570 359.961 L 99.609 400.006 99.814 370.316 L 100.019 340.625 220.322 340.625 L 340.625 340.625 340.625 280.078 L 340.625 219.531 320.313 219.531 L 300.000 219.531 300.000 259.766 "></path>
    </symbol>
    <symbol id="repeat-one" viewBox="0 0 400 400">
        <path id="path0" d="M300.000 29.495 L 300.000 59.375 179.688 59.375 L 59.375 59.375 59.375 119.922 L 59.375 180.469 79.688 180.469 L 100.000 180.469 100.000 140.234 L 100.000 100.000 199.991 100.000 L 299.982 100.000 300.186 130.081 L 300.391 160.163 340.430 120.118 L 380.469 80.072 340.234 39.844 L 300.000 -0.385 300.000 29.495 M179.102 149.842 L 159.375 159.751 159.375 170.110 L 159.375 180.469 174.609 180.469 L 189.844 180.469 189.844 220.313 L 189.844 260.156 205.078 260.156 L 220.313 260.156 220.313 200.000 L 220.313 139.844 209.570 139.888 L 198.828 139.932 179.102 149.842 M300.000 259.766 L 300.000 300.000 200.000 300.000 L 100.000 300.000 100.000 269.729 L 100.000 239.459 59.766 279.688 L 19.531 319.916 59.570 359.961 L 99.609 400.006 99.814 370.316 L 100.019 340.625 220.322 340.625 L 340.625 340.625 340.625 280.078 L 340.625 219.531 320.313 219.531 L 300.000 219.531 300.000 259.766 "></path>
    </symbol>
    
</svg>